<?xml version="1.0" encoding="utf-8"?>
<!-- Generator: Adobe Illustrator 25.2.3, SVG Export Plug-In . SVG Version: 6.00 Build 0)  -->
<svg version="1.1" id="Layer_1" xmlns="http://www.w3.org/2000/svg" xmlns:xlink="http://www.w3.org/1999/xlink" x="0px" y="0px"
	 viewBox="0 0 153.5 136.4" style="enable-background:new 0 0 153.5 136.4;" xml:space="preserve">
<path d="M151.8,112l1.7,1.7v5.2l-1.7,1.7h-2.4v-1.7h1.8l0.6-0.6v-4l-0.5-0.5h-2.3l-0.6,0.6v4.6l-1.7,1.7h-3.4l-1.7-1.7v-5.2l1.8-1.7
	h2.4v1.7h-1.8l-0.6,0.6v4l0.5,0.5h2.3l0.6-0.6v-4.6l1.7-1.7L151.8,112z"/>
<path d="M153.5,101v5.2l-1.7,1.7h-10.4v-1.7h9.6l0.7-0.7v-3.8l-0.7-0.7h-9.7v-1.7h10.4L153.5,101z"/>
<path d="M148.8,87.3v5.2h4.7v1.7h-12.1v-6.9l1.8-1.7h3.9L148.8,87.3z M143.7,87.3l-0.6,0.6v4.6h3.9v-4.5l-0.7-0.7L143.7,87.3z"/>
<path d="M153.5,82.2h-12.1v-7.4h1.7v5.7h3.5v-5.3h1.7v5.3h3.5v-5.7h1.7V82.2z"/>
<path d="M153.5,63.7h-4.1l-0.6,0.6v4.6h4.7v1.7h-12.1v-6.9l1.8-1.7h3.9l0.9,0.9l0.9-0.9h4.7V63.7z M143.7,63.7l-0.6,0.6v4.6h3.9
	v-4.5l-0.7-0.7H143.7z"/>
<path d="M143.1,54h10.4v1.7h-10.4v3.5h-1.7v-8.6h1.7V54z"/>
<path d="M153.5,47.4h-12.1V40h1.7v5.7h3.5v-5.3h1.7v5.3h3.5V40h1.7V47.4z"/>
<path d="M153.5,30.2l-4.5,2.7l4.5,2.7v2.1l-6.3-3.7l-5.8,3.4v-2.1l4-2.4l-4-2.4v-2.1l5.8,3.4l6.3-3.7V30.2z"/>
<path d="M143.1,21.6h10.4v1.7h-10.4v3.4h-1.7v-8.6h1.7V21.6z"/>
<polygon points="121.1,0 15.1,0 0,15.1 0,121.2 15.5,136.4 90.9,136.4 105.9,121.3 105.9,91 90.7,75.7 50.4,75.7 45.2,70.6 
	45.4,50.1 50.1,45.4 85.6,45.4 90.7,50.6 90.7,66.5 105.9,66.5 105.9,45.5 90.7,30.2 45.2,30.2 30.1,45.4 30.1,75.6 45.4,90.9 
	85.6,90.9 90.7,96 90.7,116.5 86,121.2 20.6,121.2 15.3,116 15.3,19.8 19.9,15.2 115.9,15.2 121.2,20.3 121.2,121.5 136.4,121.5 
	136.4,15.2 "/>
</svg>
